<?xml version="1.0" standalone="no"?>
<!DOCTYPE svg PUBLIC "-//W3C//DTD SVG 20010904//EN"
 "http://www.w3.org/TR/2001/REC-SVG-20010904/DTD/svg10.dtd">
<svg version="1.0" xmlns="http://www.w3.org/2000/svg"
 width="64.000000pt" height="64.000000pt" viewBox="0 0 64.000000 64.000000"
 preserveAspectRatio="xMidYMid meet">

<g transform="translate(0.000000,64.000000) scale(0.100000,-0.100000)"
fill="#000000" stroke="none">
<path d="M231 544 c0 -11 3 -14 6 -6 3 7 2 16 -1 19 -3 4 -6 -2 -5 -13z"/>
<path d="M385 549 c-4 -6 -4 -13 0 -17 4 -4 10 -1 12 6 4 10 8 10 19 1 11 -9
14 -8 14 5 0 18 -35 22 -45 5z"/>
<path d="M295 530 c3 -5 15 -10 25 -10 10 0 22 5 25 10 4 6 -7 10 -25 10 -18
0 -29 -4 -25 -10z"/>
<path d="M184 280 c-12 -4 -31 -21 -44 -37 -26 -33 -22 -85 9 -116 25 -25 106
-30 106 -7 0 10 -8 14 -23 12 -29 -4 -68 21 -77 48 -9 27 19 70 45 70 13 0 20
7 20 20 0 22 -4 23 -36 10z"/>
</g>
</svg>
